<svg width="35" height="24" viewBox="0 0 35 24" fill="none" xmlns="http://www.w3.org/2000/svg">
<path fill-rule="evenodd" clip-rule="evenodd" d="M22.9329 10.5676C22.8198 13.6394 21.8226 16.1392 20.2957 17.8543C20.2779 17.8743 20.2627 17.8965 20.2493 17.9199C20.2482 17.9217 20.2472 17.9236 20.2461 17.9255C20.2344 17.9456 20.2753 17.8832 20.2869 17.8655C20.289 17.8622 20.2902 17.8605 20.2897 17.8612L20.2815 17.8737C20.0492 18.2317 19.8084 18.5746 19.5596 18.9014C19.4299 19.0718 19.4852 19.327 19.6793 19.4048C20.4393 19.7094 21.2336 19.8709 22.0509 19.8709C25.3077 19.8709 28.1985 17.3066 30.0106 13.3444C30.0795 13.1938 30.0266 13.0132 29.8903 12.927L28.382 11.973C28.1772 11.8435 28.1812 11.5306 28.3892 11.4069L34.2997 7.89138C34.5097 7.76652 34.7695 7.92778 34.7664 8.18093L34.6763 15.3778C34.6731 15.631 34.4092 15.7851 34.2025 15.6543L32.8978 14.8291C32.7396 14.7291 32.5337 14.7947 32.4515 14.9682C30.0847 19.9658 26.242 23.2158 21.9039 23.2158C20.1575 23.2158 18.4914 22.6891 16.9695 21.7337C16.8639 21.6674 16.7314 21.6698 16.6279 21.7396C15.2319 22.6811 13.7051 23.1998 12.1054 23.1998C5.46608 23.1998 0.0838623 14.2656 0.0838623 3.24472C0.0838623 2.73146 0.0955362 2.22271 0.118467 1.71919C0.128954 1.48893 0.134197 1.3738 0.16031 1.25692C0.269916 0.766361 0.678244 0.357905 1.15048 0.266446C1.26299 0.244656 1.38461 0.244656 1.62785 0.244656C1.95913 0.244656 2.12478 0.244656 2.24495 0.269608C2.79172 0.383136 3.16523 0.799033 3.24081 1.37846C3.25742 1.5058 3.24652 1.69826 3.22472 2.08319C3.19345 2.63534 3.17743 3.19559 3.17743 3.76253C3.17743 12.8399 7.28393 20.1985 12.3496 20.1985C12.9511 20.1985 13.5391 20.0948 14.1082 19.8967C14.3189 19.8234 14.3721 19.5446 14.2204 19.3745C13.8519 18.9612 13.4981 18.5189 13.1604 18.05C11.5433 16.3581 10.4465 13.8453 10.2601 10.5676C10.2601 5.2486 13.0338 0.21582 16.5558 0.21582C20.0777 0.21582 22.9329 5.2486 22.9329 10.5676ZM20.2735 10.7472C20.2735 14.3623 18.4471 17.5457 16.6478 17.5457C14.8485 17.5457 12.8381 14.3623 12.8381 10.7472C12.8381 7.1322 14.8485 3.35884 16.6478 3.35884C18.4471 3.35884 20.2735 7.1322 20.2735 10.7472Z" fill="white"/>
</svg>
